<?xml version="1.0" standalone="no"?>
<svg xmlns:xlink="http://www.w3.org/1999/xlink" id="wave" style="transform:rotate(180deg); transition: 0.3s" viewBox="0 0 1440 490" version="1.1" xmlns="http://www.w3.org/2000/svg"><defs><linearGradient id="sw-gradient-0" x1="0" x2="0" y1="1" y2="0"><stop stop-color="#406ade" offset="0%"/><stop stop-color="#406ade" offset="100%"/></linearGradient></defs><path style="transform:translate(0, 0px); opacity:1" fill="url(#sw-gradient-0)" d="M0,343L120,359.3C240,376,480,408,720,367.5C960,327,1200,212,1440,138.8C1680,65,1920,33,2160,16.3C2400,0,2640,0,2880,57.2C3120,114,3360,229,3600,269.5C3840,310,4080,278,4320,261.3C4560,245,4800,245,5040,220.5C5280,196,5520,147,5760,114.3C6000,82,6240,65,6480,81.7C6720,98,6960,147,7200,138.8C7440,131,7680,65,7920,98C8160,131,8400,261,8640,294C8880,327,9120,261,9360,196C9600,131,9840,65,10080,57.2C10320,49,10560,98,10800,171.5C11040,245,11280,343,11520,367.5C11760,392,12000,343,12240,310.3C12480,278,12720,261,12960,277.7C13200,294,13440,343,13680,318.5C13920,294,14160,196,14400,147C14640,98,14880,98,15120,89.8C15360,82,15600,65,15840,49C16080,33,16320,16,16560,40.8C16800,65,17040,131,17160,163.3L17280,196L17280,490L17160,490C17040,490,16800,490,16560,490C16320,490,16080,490,15840,490C15600,490,15360,490,15120,490C14880,490,14640,490,14400,490C14160,490,13920,490,13680,490C13440,490,13200,490,12960,490C12720,490,12480,490,12240,490C12000,490,11760,490,11520,490C11280,490,11040,490,10800,490C10560,490,10320,490,10080,490C9840,490,9600,490,9360,490C9120,490,8880,490,8640,490C8400,490,8160,490,7920,490C7680,490,7440,490,7200,490C6960,490,6720,490,6480,490C6240,490,6000,490,5760,490C5520,490,5280,490,5040,490C4800,490,4560,490,4320,490C4080,490,3840,490,3600,490C3360,490,3120,490,2880,490C2640,490,2400,490,2160,490C1920,490,1680,490,1440,490C1200,490,960,490,720,490C480,490,240,490,120,490L0,490Z"/></svg>
