<?xml version="1.0" standalone="no"?>
<svg xmlns:xlink="http://www.w3.org/1999/xlink" id="wave" style="transform:rotate(180deg); transition: 0.3s" viewBox="0 0 1440 490" version="1.1" xmlns="http://www.w3.org/2000/svg"><defs><linearGradient id="sw-gradient-0" x1="0" x2="0" y1="1" y2="0"><stop stop-color="#fa5639" offset="0%"/><stop stop-color="#fa5639" offset="100%"/></linearGradient></defs><path style="transform:translate(0, 0px); opacity:1" fill="url(#sw-gradient-0)" d="M0,245L60,277.7C120,310,240,376,360,359.3C480,343,600,245,720,171.5C840,98,960,49,1080,73.5C1200,98,1320,196,1440,220.5C1560,245,1680,196,1800,147C1920,98,2040,49,2160,57.2C2280,65,2400,131,2520,147C2640,163,2760,131,2880,106.2C3000,82,3120,65,3240,65.3C3360,65,3480,82,3600,122.5C3720,163,3840,229,3960,277.7C4080,327,4200,359,4320,343C4440,327,4560,261,4680,220.5C4800,180,4920,163,5040,179.7C5160,196,5280,245,5400,269.5C5520,294,5640,294,5760,269.5C5880,245,6000,196,6120,179.7C6240,163,6360,180,6480,212.3C6600,245,6720,294,6840,285.8C6960,278,7080,212,7200,155.2C7320,98,7440,49,7560,65.3C7680,82,7800,163,7920,163.3C8040,163,8160,82,8280,65.3C8400,49,8520,98,8580,122.5L8640,147L8640,490L8580,490C8520,490,8400,490,8280,490C8160,490,8040,490,7920,490C7800,490,7680,490,7560,490C7440,490,7320,490,7200,490C7080,490,6960,490,6840,490C6720,490,6600,490,6480,490C6360,490,6240,490,6120,490C6000,490,5880,490,5760,490C5640,490,5520,490,5400,490C5280,490,5160,490,5040,490C4920,490,4800,490,4680,490C4560,490,4440,490,4320,490C4200,490,4080,490,3960,490C3840,490,3720,490,3600,490C3480,490,3360,490,3240,490C3120,490,3000,490,2880,490C2760,490,2640,490,2520,490C2400,490,2280,490,2160,490C2040,490,1920,490,1800,490C1680,490,1560,490,1440,490C1320,490,1200,490,1080,490C960,490,840,490,720,490C600,490,480,490,360,490C240,490,120,490,60,490L0,490Z"/></svg>
