<svg id="visual" viewBox="0 0 900 600" width="900" height="600" xmlns="http://www.w3.org/2000/svg" xmlns:xlink="http://www.w3.org/1999/xlink" version="1.1"><path d="M0 199L50 221C100 243 200 287 300 297C400 307 500 283 600 255C700 227 800 195 850 179L900 163L900 0L850 0C800 0 700 0 600 0C500 0 400 0 300 0C200 0 100 0 50 0L0 0Z" fill="#eb7150"></path><path d="M0 313L50 342C100 371 200 429 300 450C400 471 500 455 600 431C700 407 800 375 850 359L900 343L900 161L850 177C800 193 700 225 600 253C500 281 400 305 300 295C200 285 100 241 50 219L0 197Z" fill="#de694d"></path><path d="M0 601L50 601C100 601 200 601 300 601C400 601 500 601 600 601C700 601 800 601 850 601L900 601L900 341L850 357C800 373 700 405 600 429C500 453 400 469 300 448C200 427 100 369 50 340L0 311Z" fill="#d16249"></path></svg>