<svg id="visual" viewBox="0 0 900 600" width="900" height="600" xmlns="http://www.w3.org/2000/svg" xmlns:xlink="http://www.w3.org/1999/xlink" version="1.1"><rect x="0" y="0" width="900" height="600" fill="#ffffff00"></rect><path d="M0 477L37.5 453.2C75 429.3 150 381.7 225 394.8C300 408 375 482 450 472.5C525 463 600 370 675 298.3C750 226.7 825 176.3 862.5 151.2L900 126L900 601L862.5 601C825 601 750 601 675 601C600 601 525 601 450 601C375 601 300 601 225 601C150 601 75 601 37.5 601L0 601Z" fill="#5485f7" stroke-linecap="round" stroke-linejoin="miter"></path></svg>
