<?xml version="1.0" standalone="no"?>
<svg xmlns:xlink="http://www.w3.org/1999/xlink" id="wave" style="transform:rotate(0deg); transition: 0.3s" viewBox="0 0 1440 490" version="1.1" xmlns="http://www.w3.org/2000/svg"><defs><linearGradient id="sw-gradient-0" x1="0" x2="0" y1="1" y2="0"><stop stop-color="#406ade" offset="0%"/><stop stop-color="#406ade" offset="100%"/></linearGradient></defs><path style="transform:translate(0, 0px); opacity:1" fill="url(#sw-gradient-0)" d="M0,392L60,383.8C120,376,240,359,360,318.5C480,278,600,212,720,163.3C840,114,960,82,1080,98C1200,114,1320,180,1440,245C1560,310,1680,376,1800,408.3C1920,441,2040,441,2160,416.5C2280,392,2400,343,2520,334.8C2640,327,2760,359,2880,310.3C3000,261,3120,131,3240,89.8C3360,49,3480,98,3600,130.7C3720,163,3840,180,3960,212.3C4080,245,4200,294,4320,277.7C4440,261,4560,180,4680,196C4800,212,4920,327,5040,351.2C5160,376,5280,310,5400,285.8C5520,261,5640,278,5760,277.7C5880,278,6000,261,6120,236.8C6240,212,6360,180,6480,138.8C6600,98,6720,49,6840,40.8C6960,33,7080,65,7200,106.2C7320,147,7440,196,7560,187.8C7680,180,7800,114,7920,98C8040,82,8160,114,8280,114.3C8400,114,8520,82,8580,65.3L8640,49L8640,490L8580,490C8520,490,8400,490,8280,490C8160,490,8040,490,7920,490C7800,490,7680,490,7560,490C7440,490,7320,490,7200,490C7080,490,6960,490,6840,490C6720,490,6600,490,6480,490C6360,490,6240,490,6120,490C6000,490,5880,490,5760,490C5640,490,5520,490,5400,490C5280,490,5160,490,5040,490C4920,490,4800,490,4680,490C4560,490,4440,490,4320,490C4200,490,4080,490,3960,490C3840,490,3720,490,3600,490C3480,490,3360,490,3240,490C3120,490,3000,490,2880,490C2760,490,2640,490,2520,490C2400,490,2280,490,2160,490C2040,490,1920,490,1800,490C1680,490,1560,490,1440,490C1320,490,1200,490,1080,490C960,490,840,490,720,490C600,490,480,490,360,490C240,490,120,490,60,490L0,490Z"/></svg>
